<?xml version="1.0" encoding="UTF-8"?>
<svg version="1.1" xmlns="http://www.w3.org/2000/svg" width="1024" height="1024">
<path d="M0 0 C337.92 0 675.84 0 1024 0 C1024 337.92 1024 675.84 1024 1024 C686.08 1024 348.16 1024 0 1024 C0 686.08 0 348.16 0 0 Z " fill="#FEFEFE" transform="translate(0,0)"/>
<path d="M0 0 C337.92 0 675.84 0 1024 0 C1024 337.92 1024 675.84 1024 1024 C686.08 1024 348.16 1024 0 1024 C0 686.08 0 348.16 0 0 Z M214.25 104.6875 C212.68233887 105.07723999 212.68233887 105.07723999 211.08300781 105.47485352 C201.99633046 107.82613254 193.44816227 110.92511127 185 115 C183.89011719 115.53238281 182.78023438 116.06476563 181.63671875 116.61328125 C166.86546951 124.17024515 154.25285783 133.92677461 142.47851562 145.54248047 C141.19532144 146.80745228 139.88869537 148.04856969 138.578125 149.28515625 C136.77427818 150.8568625 136.77427818 150.8568625 137 153 C136.01 153.33 135.02 153.66 134 154 C132.59994318 155.50130296 132.59994318 155.50130296 131.328125 157.39453125 C130.83223877 158.09602295 130.33635254 158.79751465 129.82543945 159.52026367 C129.30554443 160.27670166 128.78564941 161.03313965 128.25 161.8125 C127.71141357 162.59149658 127.17282715 163.37049316 126.61791992 164.1730957 C125.06435852 166.43947588 123.52815382 168.71643108 122 171 C121.33097656 171.99773437 120.66195312 172.99546875 119.97265625 174.0234375 C112.00132064 186.81508665 106.46012569 201.48278844 103.0625 216.125 C102.78188721 217.31875244 102.78188721 217.31875244 102.49560547 218.53662109 C98.95348999 235.27485306 98.70644862 252.41074182 98.74603271 269.44277954 C98.74372266 271.63748222 98.74054251 273.83218412 98.73657823 276.02688444 C98.72829658 282.0012035 98.73232504 287.97545795 98.73855066 293.94977713 C98.74310147 300.41472893 98.73607846 306.87967011 98.73059082 313.34461975 C98.72184895 325.25767148 98.72292578 337.17070294 98.72841376 349.08375584 C98.73345911 360.09093843 98.73475165 371.09811357 98.73236847 382.10529709 C98.7322157 382.83746019 98.73206293 383.56962329 98.73190553 384.32397316 C98.73128278 387.29657355 98.73064597 390.26917394 98.729986 393.24177433 C98.72387828 421.08410659 98.72939882 448.9264259 98.7401798 476.76875616 C98.74967186 501.47019334 98.74881889 526.17160988 98.73925781 550.87304688 C98.72853443 578.669806 98.72430957 606.4665537 98.73048234 634.2633146 C98.73112371 637.22965455 98.7317494 640.19599449 98.73236847 643.16233444 C98.73252662 643.89264373 98.73268478 644.62295301 98.73284773 645.37539288 C98.73511665 656.37330813 98.73247343 667.37121508 98.72740936 678.36912918 C98.72167687 690.88056154 98.72334176 703.39196875 98.73397085 715.90339829 C98.73921144 722.28132047 98.74131183 728.65920089 98.73467255 735.03712273 C98.72867764 740.88463215 98.73204621 746.73206142 98.74262765 752.57956366 C98.74484671 754.68559707 98.74375934 756.79163737 98.73887607 758.89766629 C98.64006047 805.08680462 110.33697593 845.9476042 143.4609375 879.4921875 C171.28120372 906.97005044 208.21064736 923.21370926 247.57864857 923.13142776 C248.50489327 923.1334804 249.43113797 923.13553303 250.38545069 923.13764787 C253.4823072 923.14329232 256.57911888 923.14186378 259.67597961 923.14044189 C261.92163477 923.143027 264.16728948 923.14604057 266.41294354 923.1494453 C272.57925871 923.15750157 278.74556223 923.15930411 284.91188204 923.16004276 C290.88107971 923.16170537 296.85027203 923.16802514 302.81946642 923.17412117 C318.80704949 923.19015923 334.79463158 923.19608222 350.78222125 923.20086992 C358.35105886 923.20320834 365.91989572 923.20681129 373.48873275 923.2105653 C399.41636055 923.22339964 425.34398794 923.23411831 451.27161884 923.2375679 C452.89835461 923.23778953 454.52509038 923.23801132 456.15182615 923.23823325 C457.78241152 923.23845389 459.41299689 923.23867437 461.04358226 923.2388947 C464.31461799 923.23933724 467.58565372 923.23978436 470.85668945 923.24023438 C472.07322388 923.24039846 472.07322388 923.24039846 473.31433476 923.24056586 C499.59639241 923.24419439 525.87842243 923.26010733 552.1604695 923.28342474 C579.97107105 923.30805299 607.78165683 923.32174215 635.5922696 923.32293582 C638.64868844 923.32310726 641.70510727 923.32332269 644.76152611 923.32357025 C645.89032591 923.3236539 645.89032591 923.3236539 647.04192974 923.32373925 C659.12253912 923.32488716 671.20312004 923.33588711 683.28371983 923.35045731 C695.44058898 923.36486525 707.59742188 923.36803514 719.75429723 923.36001733 C726.33290681 923.35596958 732.91144018 923.35699409 739.49003983 923.37107468 C745.52377825 923.38387044 751.55735041 923.38256644 757.59108879 923.37048396 C759.76276446 923.36853675 761.93445213 923.37155971 764.10611097 923.38032833 C777.68370999 923.43163794 790.63819587 922.44521993 804 920 C805.64922981 919.70319395 805.64922981 919.70319395 807.33177739 919.40039182 C843.79194109 912.56832828 877.65182306 889.28144431 898.546875 858.7578125 C912.17389113 838.12414949 921.21143934 814.65529372 924 790 C924.08327254 789.26999839 924.16654508 788.53999679 924.25234103 787.78787392 C925.27956052 777.39526289 925.14539949 766.99737299 925.14044189 756.56636047 C925.14302867 754.3835516 925.1460427 752.20074321 925.1494453 750.01793545 C925.15748202 744.03907494 925.15930301 738.06022645 925.16004276 732.08136117 C925.16189916 725.62499763 925.16944949 719.16864024 925.17617798 712.71228027 C925.19071226 697.86693987 925.1962851 683.02160078 925.20086992 668.17625454 C925.20321029 660.83028761 925.20681345 653.48432145 925.2105653 646.13835512 C925.22339808 620.96167743 925.23411678 595.78500017 925.2375679 570.60831928 C925.23778953 569.02943941 925.23801131 567.45055954 925.23823325 565.87167967 C925.23845389 564.28912038 925.23867437 562.70656109 925.2388947 561.1240018 C925.23933724 557.94944847 925.23978436 554.77489513 925.24023438 551.6003418 C925.24034377 550.81324394 925.24045316 550.02614608 925.24056586 549.21519677 C925.24419338 523.71566392 925.26010328 498.21615955 925.28342474 472.7166376 C925.30807184 445.71797935 925.32174303 418.71933736 925.32293582 391.72066754 C925.32310726 388.75154984 925.32332268 385.78243214 925.32357025 382.81331444 C925.3236539 381.71680045 925.3236539 381.71680045 925.32373925 380.59813466 C925.32488553 368.88038229 925.33587145 357.16265935 925.35045731 345.44491688 C925.36488957 333.6456722 925.367771 321.84646808 925.36001733 310.04721693 C925.35612897 303.66643501 925.35695107 297.28575125 925.37107468 290.90498161 C925.38392323 285.04627312 925.38252124 279.18773546 925.37048396 273.32902684 C925.36854574 271.22666497 925.37151686 269.12429053 925.38032833 267.02194623 C925.56365667 220.26336442 914.11188384 178.2074396 881.04296875 144.01953125 C849.3662975 112.20058429 806.3388363 99.94102952 762.43509573 99.73522224 C759.48037379 99.7324306 756.52575881 99.73910764 753.57104492 99.74603271 C751.38999166 99.74372214 749.20893918 99.74054165 747.0278883 99.73657823 C741.09582497 99.72830356 735.16382679 99.7323218 729.23176336 99.73855066 C722.8103986 99.74310445 716.38904448 99.73607697 709.96768188 99.73059082 C698.13618385 99.72185176 686.30470623 99.72292456 674.47320703 99.72841376 C663.53986491 99.73346086 652.6065303 99.73475085 641.67318726 99.73236847 C640.94568731 99.7322157 640.21818736 99.73206293 639.46864196 99.73190553 C636.51488744 99.73128277 633.56113292 99.73064596 630.6073784 99.729986 C602.94423826 99.72387902 575.28111115 99.7293974 547.61797301 99.7401798 C523.08417555 99.74966978 498.55039885 99.74882047 474.01660156 99.73925781 C446.40145837 99.72852989 418.78632667 99.72431227 391.17118168 99.73048234 C388.2230587 99.7311237 385.27493572 99.73174938 382.32681274 99.73236847 C381.23809615 99.7326057 381.23809615 99.7326057 380.12738528 99.73284773 C369.20555633 99.73511498 358.28373575 99.73247652 347.36190796 99.72740936 C334.9332966 99.7216716 322.50471055 99.72335235 310.07610202 99.73397085 C303.74235696 99.7392049 297.4086539 99.74132319 291.07490921 99.73467255 C285.26429103 99.72866376 279.45375334 99.73206857 273.64314234 99.74262765 C271.55390903 99.74484095 269.46466875 99.74377268 267.37544 99.73887607 C249.54361644 99.70032599 231.61119766 100.25588787 214.25 104.6875 Z " fill="#FEFEFE" transform="translate(0,0)"/>
<path d="M0 0 C2.18105326 -0.00231058 4.36210574 -0.00549107 6.54315662 -0.00945449 C12.47521995 -0.01772916 18.40721813 -0.01371092 24.33928156 -0.00748205 C30.76064632 -0.00292827 37.18200044 -0.00995574 43.60336304 -0.01544189 C55.43486107 -0.02418095 67.26633869 -0.02310816 79.0978379 -0.01761896 C90.03118001 -0.01257186 100.96451462 -0.01128186 111.89785767 -0.01366425 C112.62535761 -0.01381702 113.35285756 -0.01396979 114.10240296 -0.01412719 C117.05615748 -0.01474994 120.009912 -0.01538675 122.96366652 -0.01604671 C150.62680666 -0.02215369 178.28993377 -0.01663531 205.95307191 -0.00585292 C230.48686937 0.00363706 255.02064607 0.00278775 279.55444336 -0.0067749 C307.16958656 -0.01750282 334.78471825 -0.02172045 362.39986324 -0.01555037 C365.34798622 -0.01490902 368.2961092 -0.01428333 371.24423218 -0.01366425 C372.33294877 -0.01342701 372.33294877 -0.01342701 373.44365964 -0.01318499 C384.36548859 -0.01091773 395.28730918 -0.01355619 406.20913696 -0.01862335 C418.63774832 -0.02436112 431.06633437 -0.02268036 443.4949429 -0.01206186 C449.82868796 -0.00682782 456.16239102 -0.00470953 462.49613571 -0.01136017 C468.30675389 -0.01736896 474.11729159 -0.01396414 479.92790258 -0.00340506 C482.01713589 -0.00119176 484.10637617 -0.00226003 486.19560492 -0.00715664 C534.80940732 -0.11225337 578.38273439 12.27120317 613.57104492 47.18756104 C645.93414276 81.06767909 654.93044405 124.3320821 654.82501221 169.69674683 C654.82732226 171.89144951 654.83050242 174.08615141 654.8344667 176.28085172 C654.84274834 182.25517079 654.83871988 188.22942524 654.83249426 194.20374441 C654.82794345 200.66869621 654.83496646 207.13363739 654.8404541 213.59858704 C654.84919597 225.51163877 654.84811914 237.42467023 654.84263116 249.33772312 C654.83758581 260.34490572 654.83629327 271.35208086 654.83867645 282.35926437 C654.83890561 283.45750903 654.83890561 283.45750903 654.83913939 284.57794044 C654.83976214 287.55054084 654.84039895 290.52314123 654.84105892 293.49574162 C654.84716664 321.33807388 654.8416461 349.18039319 654.83086513 377.02272345 C654.82137306 401.72416062 654.82222604 426.42557717 654.83178711 451.12701416 C654.84251049 478.92377328 654.84673535 506.72052098 654.84056258 534.51728189 C654.83992121 537.48362183 654.83929553 540.44996178 654.83867645 543.41630173 C654.8385183 544.14661101 654.83836014 544.87692029 654.8381972 545.62936016 C654.83592827 556.62727541 654.83857149 567.62518237 654.84363556 578.62309647 C654.84936806 591.13452882 654.84770317 603.64593603 654.83707407 616.15736558 C654.83183348 622.53528776 654.82973309 628.91316818 654.83637238 635.29109001 C654.84236728 641.13859944 654.83899871 646.98602871 654.82841727 652.83353095 C654.82619821 654.93956436 654.82728558 657.04560466 654.83216885 659.15163358 C654.93200224 705.81651646 642.64054561 746.85916067 609.44604492 780.75396729 C597.3526198 792.79441083 583.71869769 801.51286184 568.57104492 809.25396729 C567.45729492 809.83017822 566.34354492 810.40638916 565.19604492 811.00006104 C557.77006802 814.50373886 550.15128367 816.55332112 542.19604492 818.50396729 C541.1924292 818.75050049 540.18881348 818.99703369 539.15478516 819.2510376 C523.09313623 822.97570192 507.45775973 823.54610582 491.05328369 823.5146637 C488.80158638 823.51768902 486.54989009 823.52158041 484.2981956 823.52625626 C478.1476803 823.53649583 471.99722355 823.53436477 465.84670353 823.53007567 C459.88291176 823.52785568 453.91913294 823.53503067 447.95534626 823.54183592 C434.26189864 823.55703336 420.56846958 823.55878538 406.87501529 823.5563129 C396.29680917 823.55447645 385.71860911 823.55624721 375.14040375 823.56053734 C373.6177725 823.56113975 372.09514124 823.56174095 370.57250999 823.56234094 C368.27772535 823.56324825 365.98294071 823.56415692 363.68815607 823.56507329 C342.36693923 823.57349644 321.04572465 823.57784293 299.72450638 823.57366657 C298.9216253 823.5735102 298.11874422 823.57335382 297.29153342 823.57319271 C293.22270998 823.57238699 289.15388655 823.57154122 285.08506313 823.5706794 C283.87305762 823.57042277 283.87305762 823.57042277 282.63656715 823.57016096 C281.00258963 823.5698143 279.36861212 823.56946577 277.7346346 823.56911537 C252.31550765 823.56375935 226.8964154 823.5716878 201.47729492 823.59014893 C172.88288642 823.61089211 144.28849942 823.62158723 115.69408298 823.61757344 C112.64170504 823.61717813 109.5893271 823.61681657 106.53694916 823.61647606 C105.40968761 823.61633996 105.40968761 823.61633996 104.25965311 823.61620111 C92.94428491 823.61503804 81.6289385 823.62166131 70.31357574 823.63228798 C57.43575324 823.64437008 44.55797856 823.64586438 31.68015531 823.63349781 C25.11567642 823.62747506 18.55127186 823.62647635 11.98679733 823.63850021 C5.96628706 823.64939916 -0.05405241 823.64620808 -6.07455483 823.63223853 C-8.24130899 823.62960263 -10.40807671 823.63192292 -12.57481751 823.63997439 C-56.9461885 823.79328493 -95.98645749 810.28047982 -127.91723633 778.80084229 C-161.45216395 744.79652999 -171.5915689 703.47107871 -171.56939697 656.82032776 C-171.57198375 654.63751889 -171.57499777 652.45471049 -171.57840037 650.27190274 C-171.5864371 644.29304222 -171.58825809 638.31419374 -171.58899784 632.33532846 C-171.59085424 625.87896491 -171.59840457 619.42260752 -171.60513306 612.96624756 C-171.61966734 598.12090715 -171.62524018 583.27556806 -171.629825 568.43022183 C-171.63216537 561.08425489 -171.63576852 553.73828873 -171.63952038 546.3923224 C-171.65235316 521.21564472 -171.66307186 496.03896745 -171.66652298 470.86228657 C-171.66674461 469.2834067 -171.66696639 467.70452683 -171.66718833 466.12564696 C-171.66740897 464.54308767 -171.66762945 462.96052838 -171.66784978 461.37796909 C-171.66829231 458.20341575 -171.66873943 455.02886242 -171.66918945 451.85430908 C-171.66929884 451.06721122 -171.66940823 450.28011337 -171.66952094 449.46916406 C-171.67314846 423.9696312 -171.68905836 398.47012683 -171.71237982 372.97060488 C-171.73702692 345.97194663 -171.7506981 318.97330465 -171.7518909 291.97463483 C-171.75206233 289.00551712 -171.75227775 286.03639942 -171.75252533 283.06728172 C-171.7525811 282.3362724 -171.75263687 281.60526307 -171.75269433 280.85210195 C-171.75384061 269.13434957 -171.76482652 257.41662664 -171.77941239 245.69888417 C-171.79384464 233.89963949 -171.79672608 222.10043536 -171.78897241 210.30118421 C-171.78508405 203.92040229 -171.78590615 197.53971854 -171.80002975 191.1589489 C-171.81287831 185.30024041 -171.81147632 179.44170275 -171.79943904 173.58299413 C-171.79750082 171.48063225 -171.80047193 169.37825781 -171.80928341 167.27591351 C-171.97019299 126.23532023 -163.81024814 84.63712788 -135.42895508 53.25396729 C-134.76895508 53.25396729 -134.10895508 53.25396729 -133.42895508 53.25396729 C-133.20208008 52.70224854 -132.97520508 52.15052979 -132.74145508 51.58209229 C-120.66290147 30.15703887 -88.26187001 14.0246802 -65.61645508 7.37896729 C-62.89696285 6.62877326 -60.16709496 5.93245054 -57.42895508 5.25396729 C-55.72932617 4.81117432 -55.72932617 4.81117432 -53.99536133 4.35943604 C-36.33299397 0.13627871 -18.06285601 -0.04233461 0 0 Z M-34.26062584 27.13660717 C-35.44767666 27.25130895 -35.44767666 27.25130895 -36.65870831 27.36832793 C-63.40885676 30.27711869 -86.7580769 43.52359466 -106.42895508 61.25396729 C-107.15598633 61.89720947 -107.88301758 62.54045166 -108.63208008 63.20318604 C-118.11417341 72.08783039 -125.7851256 83.61792379 -131.42895508 95.25396729 C-131.86723633 96.15631104 -132.30551758 97.05865479 -132.75708008 97.98834229 C-134.03893183 100.72192975 -135.2478993 103.47548353 -136.42895508 106.25396729 C-136.77829102 107.04545166 -137.12762695 107.83693604 -137.48754883 108.65240479 C-143.63383605 123.81484096 -145.5954657 141.46217657 -145.56038284 157.72419643 C-145.56243548 158.62656897 -145.56448811 159.52894151 -145.56660295 160.45865867 C-145.57223635 163.46827728 -145.57082025 166.47784961 -145.56939697 169.48747253 C-145.57198271 171.67283145 -145.57499645 173.85818989 -145.57840037 176.04354769 C-145.58644912 182.03851058 -145.58825876 188.03346149 -145.58899784 194.02842915 C-145.5908521 200.49834648 -145.59840131 206.96825764 -145.60513306 213.43817139 C-145.61967637 228.31812544 -145.62524097 243.19807818 -145.629825 258.07803806 C-145.63216399 265.43749802 -145.63576698 272.7969572 -145.63952038 280.15641655 C-145.65235331 305.36836286 -145.66307264 330.58030875 -145.66652298 355.79225826 C-145.66674461 357.3737438 -145.66696639 358.95522934 -145.66718833 360.53671489 C-145.66740897 362.12192969 -145.66762945 363.70714449 -145.66784978 365.29235929 C-145.66829232 368.47235167 -145.66873944 371.65234405 -145.66918945 374.83233643 C-145.66929884 375.62078461 -145.66940823 376.4092328 -145.66952094 377.22157335 C-145.67315008 402.77641094 -145.68906606 428.33122014 -145.71237982 453.88604686 C-145.7370064 480.92952948 -145.75069713 507.97299588 -145.7518909 535.01649004 C-145.75206234 537.98833979 -145.75227776 540.96018952 -145.75252533 543.93203926 C-145.7525811 544.66374613 -145.75263687 545.39545299 -145.75269433 546.14933279 C-145.7538423 557.89627497 -145.76484268 569.64318788 -145.77941239 581.39012019 C-145.79381805 593.20966889 -145.79674011 605.0291771 -145.78897241 616.84873223 C-145.78507472 623.24495886 -145.78595249 629.64108753 -145.80002975 636.03730202 C-145.81282128 641.90317813 -145.8115252 647.7688832 -145.79943904 653.63475925 C-145.79749112 655.74649535 -145.80051814 657.85824379 -145.80928341 659.96996259 C-145.89854194 682.94555689 -142.5741833 704.071832 -133.42895508 725.25396729 C-133.06157227 726.1163501 -132.69418945 726.97873291 -132.31567383 727.86724854 C-127.46601616 738.36014422 -120.19190721 748.69345158 -112.42895508 757.25396729 C-111.76895508 757.25396729 -111.10895508 757.25396729 -110.42895508 757.25396729 C-110.18790039 757.8276001 -109.9468457 758.40123291 -109.69848633 758.99224854 C-100.60634302 775.19025153 -74.51482611 786.47929676 -57.67895508 792.19146729 C-56.43952148 792.61516602 -56.43952148 792.61516602 -55.17504883 793.04742432 C-40.95021584 797.61449176 -26.85778951 797.5445227 -12.08213806 797.52139282 C-9.81240566 797.52513319 -7.54267455 797.52973625 -5.27294546 797.53512347 C0.94135274 797.54732106 7.15559697 797.54709682 13.3699044 797.54473472 C19.3910773 797.54436778 25.41223208 797.55336003 31.43339708 797.56196049 C45.26366625 797.58126438 59.09392055 797.58692737 72.92420162 797.58807461 C83.60879177 797.5889951 94.29337613 797.59311907 104.9779644 797.59947586 C108.05795858 797.60127106 111.13795276 797.60305069 114.21794695 797.60482562 C115.36662481 797.60548876 115.36662481 797.60548876 116.5385083 797.6061653 C138.06798713 797.61846738 159.59746395 797.62636708 181.12694645 797.62547874 C181.93803988 797.62544759 182.7491333 797.62541643 183.58480532 797.62538433 C187.69538397 797.62521812 191.80596263 797.62502004 195.91654129 797.62481491 C196.73285668 797.62477502 197.54917207 797.62473513 198.39022429 797.62469403 C200.04101225 797.62461316 201.69180021 797.62452956 203.34258817 797.62444325 C229.01633795 797.62321821 254.69003487 797.63822488 280.36376953 797.66558838 C309.23612915 797.69634865 338.10845405 797.71351849 366.98083109 797.71166193 C370.06302575 797.71151268 373.14522042 797.71141526 376.22741508 797.7113533 C377.36570951 797.71131834 377.36570951 797.71131834 378.52699978 797.71128267 C390.70781855 797.71122128 402.8885912 797.72396076 415.06939629 797.74121783 C427.32436607 797.75822015 439.57926882 797.76011231 451.8342439 797.74699919 C458.46555501 797.740285 465.09673564 797.74030427 471.7280407 797.75770569 C477.80977638 797.77350022 483.89121511 797.77050763 489.97294383 797.75313742 C492.16199621 797.75008156 494.35107109 797.75364592 496.54009689 797.76485758 C529.78135499 797.9237067 559.04089633 788.83824086 584.57104492 767.25396729 C585.64805664 766.38771729 585.64805664 766.38771729 586.74682617 765.50396729 C611.85944504 745.01296121 624.49846481 712.78760821 628.35324892 681.51484754 C628.72229386 677.68389374 628.71070649 673.86568743 628.70247269 670.01980305 C628.70452532 669.11864902 628.70657795 668.21749499 628.70869279 667.28903326 C628.71434405 664.2714968 628.71290785 661.25400626 628.71148682 658.23646545 C628.71407154 656.05013323 628.717085 653.86380148 628.72049022 651.67747039 C628.72855115 645.67044845 628.73034929 639.66343847 628.73108768 633.65641177 C628.73293987 627.17687766 628.74048817 620.69734974 628.7472229 614.21781921 C628.76177753 599.30904121 628.76733258 584.4002645 628.77191485 569.49148067 C628.77425299 562.11787987 628.77785594 554.74427985 628.78161022 547.37067965 C628.79444581 522.11125802 628.80516376 496.85183682 628.80861282 471.59241199 C628.80883445 470.00735602 628.80905624 468.42230005 628.80927818 466.83724407 C628.80949881 465.24843308 628.8097193 463.65962209 628.80993962 462.07081109 C628.81038217 458.88357214 628.81082928 455.69633319 628.8112793 452.50909424 C628.81138869 451.71884696 628.81149808 450.92859967 628.81161078 450.1144055 C628.81523846 424.51167958 628.83114752 398.90898202 628.85446966 373.30626696 C628.87910319 346.21417479 628.89278735 319.12209883 628.89398074 292.02999514 C628.89415218 289.05189971 628.89436761 286.07380428 628.89461517 283.09570885 C628.89469883 281.99583659 628.89469883 281.99583659 628.89478417 280.8737447 C628.89593171 269.10663127 628.90692863 257.33954709 628.92150223 245.57244351 C628.93591712 233.72797262 628.93907622 221.88353896 628.93106225 210.0390617 C628.92716755 203.63044963 628.92802749 197.22193533 628.9421196 190.81333542 C628.95492964 184.93370526 628.95359907 179.05424562 628.94152889 173.17461547 C628.9395841 171.06009224 628.94259316 168.94555663 628.95137325 166.83105073 C629.09525749 129.80174927 621.19317317 95.02638537 595.57104492 67.25396729 C595.10714355 66.74092041 594.64324219 66.22787354 594.1652832 65.69927979 C572.38779085 41.80695263 540.88022642 28.01453327 508.766691 26.34228085 C500.81810044 26.0225716 492.85455228 26.11376664 484.9012146 26.12025452 C482.71724109 26.11838378 480.53326791 26.11608204 478.34929526 26.11338919 C472.37670049 26.10729725 466.40411977 26.10740171 460.43152261 26.10858357 C453.97869926 26.10878824 447.52588035 26.10326254 441.07305908 26.098526 C428.44162979 26.09001718 415.81020448 26.0874588 403.17877261 26.08691362 C392.90753786 26.08645322 382.63630461 26.08439042 372.36507034 26.081213 C369.40329572 26.08031539 366.44152109 26.07942557 363.47974646 26.07853812 C362.37513514 26.07820655 362.37513514 26.07820655 361.24820845 26.07786828 C340.54786978 26.0717182 319.84753163 26.06776729 299.147192 26.06821156 C297.97766098 26.06823492 297.97766098 26.06823492 296.78450308 26.06825876 C292.83316278 26.06834187 288.88182249 26.06844091 284.93048219 26.06854347 C284.14580088 26.06856342 283.36111956 26.06858336 282.55266002 26.06860391 C280.9658446 26.06864435 279.37902919 26.06868615 277.79221377 26.0687293 C253.11187685 26.06934186 228.43155369 26.06183739 203.7512207 26.04815674 C175.99111109 26.03277508 148.23101051 26.02419176 120.47089636 26.02511996 C117.50723561 26.02519459 114.54357485 26.0252433 111.57991409 26.02527428 C110.8502438 26.02528593 110.12057351 26.02529759 109.368792 26.02530959 C97.65946834 26.02534028 85.95015667 26.01897214 74.24083657 26.01034201 C62.45985134 26.00183903 50.67888501 26.00106687 38.89789836 26.00745133 C32.52381887 26.01070845 26.14978258 26.01080245 19.77570724 26.00209808 C13.92909014 25.99419644 8.08255023 25.9957017 2.23593493 26.00438222 C0.13237722 26.00590916 -1.97118636 26.0041318 -4.07473715 25.99852214 C-14.18314396 25.97337281 -24.19373508 26.15772036 -34.26062584 27.13660717 Z " fill="#353A44" transform="translate(270.428955078125,99.74603271484375)"/>
<path d="M0 0 C0.80843353 0.00021149 1.61686707 0.00042297 2.44979858 0.00064087 C15.62003404 0.03490917 28.15781944 0.9705769 40.9375 4.375 C41.67677734 4.56755371 42.41605469 4.76010742 43.17773438 4.95849609 C52.52843419 7.46359629 61.29285719 11.0078877 69.9375 15.375 C71.33742188 16.06722656 71.33742188 16.06722656 72.765625 16.7734375 C97.93058497 29.7873168 117.28989218 52.20996895 126.87890625 78.8203125 C135.74950213 108.60718426 134.42845069 137.34631964 120.125 165.1875 C119.53996704 166.33424194 119.53996704 166.33424194 118.94311523 167.50415039 C113.4531897 177.76004309 105.67112111 185.9544317 97.4375 194.0625 C96.63441406 194.86494141 95.83132813 195.66738281 95.00390625 196.49414062 C90.14088388 201.32169525 85.13760433 205.91494986 79.9375 210.375 C77.51233851 212.52860375 75.10252322 214.69663149 72.703125 216.87890625 C70.75098477 218.64079552 68.78727473 220.37279064 66.796875 222.08984375 C54.40111247 232.93544311 44.45848428 245.45215516 39.7109375 261.43359375 C39.49808105 262.14652588 39.28522461 262.85945801 39.06591797 263.59399414 C38.65820134 264.99280747 38.26807213 266.3969134 37.89892578 267.80639648 C36.5575203 272.5591247 34.69395072 275.20103689 30.9375 278.375 C28.29161519 279.6979424 26.26094469 279.53134796 23.29785156 279.56787109 C22.11612366 279.58393402 20.93439575 279.59999695 19.71685791 279.61654663 C14.30504828 279.66092801 8.89338477 279.7025086 3.48144531 279.72509766 C0.62564967 279.73842275 -2.22942898 279.76624682 -5.08496094 279.80712891 C-9.19738803 279.86600328 -13.30904833 279.88376746 -17.421875 279.8984375 C-19.3346524 279.93244156 -19.3346524 279.93244156 -21.28607178 279.96713257 C-31.16427104 279.94356029 -31.16427104 279.94356029 -34.79003906 277.09228516 C-40.04342283 270.81057466 -39.39650834 265.4170946 -39.375 257.4375 C-39.39111328 256.27669922 -39.40722656 255.11589844 -39.42382812 253.91992188 C-39.4301746 242.51530268 -37.44213673 232.00339694 -32.375 221.75 C-32.02687256 221.03126709 -31.67874512 220.31253418 -31.32006836 219.57202148 C-26.63076908 210.16706078 -20.32475488 202.40881007 -13.21875 194.71875 C-11.25477932 192.58399926 -9.37336639 190.40147846 -7.5 188.1875 C-4.67798693 184.94669504 -1.63842987 182.19462218 1.63671875 179.421875 C4.52422905 176.85302034 7.22440852 174.12573219 9.9375 171.375 C13.2638301 168.00672178 16.59236673 164.71058682 20.1875 161.625 C32.97554952 150.59991204 44.9661712 137.26295367 46.8125 119.875 C47.381192 108.07117335 44.40484224 99.18509461 36.75 90.25 C26.28198094 79.17120511 12.71601512 73.78400503 -2.46875 73.25390625 C-17.63657341 73.76499595 -32.09826376 78.63090945 -43.234375 89.35546875 C-51.10146596 98.04625086 -55.75772435 106.57953459 -60.0625 117.375 C-62.18951636 122.40637606 -64.50444561 125.1531908 -69.56661987 127.55227661 C-74.54084713 129.19194394 -79.65992736 128.92126138 -84.84765625 128.87109375 C-86.06271347 128.87254898 -87.27777069 128.87400421 -88.52964783 128.87550354 C-91.0888815 128.87384921 -93.64812561 128.86234049 -96.20727539 128.84155273 C-100.11582834 128.81256801 -104.02302605 128.82096139 -107.93164062 128.83398438 C-110.42448573 128.82774723 -112.91732657 128.81935649 -115.41015625 128.80859375 C-116.57386246 128.81152939 -117.73756866 128.81446503 -118.9365387 128.81748962 C-126.32366738 128.73190449 -131.92420117 128.39593156 -137.46484375 123.0625 C-142.44726672 114.68130928 -138.53077967 102.23769732 -136.32543945 93.34130859 C-130.92634616 73.00087914 -121.24249126 55.83939207 -107.0625 40.375 C-106.27230469 39.49070313 -105.48210937 38.60640625 -104.66796875 37.6953125 C-78.44812212 9.7796549 -36.86981866 -0.08958304 0 0 Z " fill="#373C46" transform="translate(514.0625,179.625)"/>
<path d="M0 0 C1.35019217 -0.00657338 1.35019217 -0.00657338 2.72766095 -0.01327956 C5.72659007 -0.02657293 8.72548988 -0.03282491 11.72444153 -0.03897095 C13.88184234 -0.04687921 16.03924186 -0.0551486 18.19664001 -0.06375122 C25.26554619 -0.08988142 32.33445802 -0.10526706 39.40339661 -0.11953735 C41.84242061 -0.12490021 44.28144458 -0.13027772 46.72046852 -0.13566971 C56.86810259 -0.1572827 67.01573512 -0.17601853 77.16338634 -0.1872921 C91.68004756 -0.2035292 106.1964411 -0.23671978 120.71300143 -0.29369295 C130.93578662 -0.33244044 141.15850034 -0.35193034 151.38135701 -0.35721266 C157.48008007 -0.36085864 163.57851702 -0.37280099 169.67716026 -0.4053154 C175.41712404 -0.43548148 181.15662981 -0.4416772 186.89665604 -0.42993164 C188.99560698 -0.42971164 191.09457974 -0.43795505 193.19345665 -0.45558548 C208.47147363 -0.57686984 220.9829792 0.31083101 232.57136536 11.5406189 C242.16033663 23.1200806 242.83262903 35.79623908 241.73542786 50.15390015 C240.90457728 53.89918515 239.72353102 56.88821866 237.73542786 60.15390015 C237.09605286 61.24702515 236.45667786 62.34015015 235.79792786 63.46640015 C228.07888161 73.52455132 219.18614699 78.42565805 206.73542786 80.15390015 C203.80519095 80.29652093 200.87917624 80.29748172 197.94587708 80.29434204 C197.07266469 80.29731316 196.1994523 80.30028429 195.29977894 80.30334544 C192.3798813 80.31200236 189.4600248 80.31353816 186.54011536 80.31503296 C184.44374505 80.31966337 182.34737558 80.32468833 180.25100708 80.33007812 C174.55845546 80.34318517 168.86591563 80.34964412 163.17335129 80.35408878 C159.61295667 80.35702306 156.05256525 80.36112861 152.49217224 80.36559296 C141.34144512 80.37926522 130.19072534 80.38893244 119.03999043 80.39279485 C106.18942904 80.397271 93.33897426 80.41479951 80.48844528 80.44379544 C70.54253804 80.46545427 60.59666069 80.47550142 50.65073013 80.47683597 C44.71690519 80.47788125 38.7831805 80.48372975 32.84938049 80.50165558 C27.2613625 80.51820828 21.67351933 80.52025693 16.08548546 80.51151657 C14.04340838 80.51074996 12.00132162 80.5150388 9.95926857 80.52497482 C-20.7739869 80.66564782 -20.7739869 80.66564782 -33.19035339 69.4078064 C-42.27038028 60.05557313 -43.95547226 49.746443 -43.78825378 37.17245483 C-43.39300687 26.54369032 -40.70580493 17.97233829 -33.26457214 10.15390015 C-23.46783461 1.21082024 -12.80462003 0.00770009 0 0 Z " fill="#3190F7" transform="translate(257.2645721435547,589.8460998535156)"/>
<path d="M0 0 C0.91364104 -0.00382555 1.82728209 -0.00765109 2.76860923 -0.01159257 C5.81916186 -0.02188186 8.86952483 -0.01793813 11.92008972 -0.01396179 C14.11176731 -0.01831055 16.30344338 -0.02349425 18.49511719 -0.02944946 C24.44148261 -0.04283397 30.38778445 -0.04341866 36.334162 -0.04088616 C41.30174701 -0.03981594 46.2693192 -0.0447012 51.23690146 -0.04949158 C63.6291231 -0.06121926 76.02131341 -0.0603628 88.41353693 -0.05393478 C99.16020597 -0.04876819 109.90678429 -0.06001562 120.65343539 -0.07903299 C131.70297589 -0.09843557 142.75247144 -0.10637201 153.80202883 -0.10290974 C159.99950908 -0.10109837 166.19690627 -0.10371853 172.39437294 -0.11762428 C178.22452891 -0.13021639 184.05450366 -0.12824527 189.88465691 -0.11521339 C192.02032661 -0.11285098 194.15600911 -0.11557023 196.29166412 -0.12383652 C199.21540335 -0.13433414 202.13853785 -0.12617896 205.06225586 -0.11352539 C206.31875961 -0.12458682 206.31875961 -0.12458682 207.60064727 -0.13587171 C218.60389887 -0.03623862 227.52243129 3.68518347 235.66300964 11.00679016 C244.03033516 19.69941127 246.42928791 29.43378074 246.24528503 41.17524719 C245.78967956 51.71204443 243.32995892 61.59986946 235.72160339 69.26069641 C226.12275273 77.82341859 215.15307958 80.5807538 202.56455994 80.52139282 C201.68807871 80.52521837 200.81159749 80.52904392 199.90855622 80.53298539 C196.99559021 80.54323659 194.08282422 80.53933829 191.16984558 80.53535461 C189.07140929 80.53970551 186.97297459 80.54488992 184.87454224 80.55084229 C179.19048132 80.56420442 173.50648701 80.56481393 167.82241344 80.56227899 C163.06874887 80.56120715 158.31509765 80.5660982 153.56143594 80.57088441 C142.34056357 80.58197047 131.11972468 80.58242239 119.89884949 80.57637024 C108.34442748 80.57033372 96.79012734 80.58263543 85.23572612 80.60394031 C75.2974116 80.6215878 65.35913577 80.62755261 55.42080617 80.62430257 C49.49321379 80.62249422 43.56570831 80.62508085 37.63813019 80.63901711 C32.05991391 80.65164168 26.48188673 80.64960762 20.90367317 80.63660622 C18.86440274 80.63425076 16.82511881 80.63693784 14.78586388 80.64522934 C-1.39184727 80.70622816 -16.86598413 80.5212612 -29.15339661 68.41304016 C-36.40751551 59.5811504 -37.95115241 49.29511837 -37.84089661 38.19819641 C-37.86474426 37.09153625 -37.88859192 35.9848761 -37.91316223 34.84468079 C-37.89569226 24.98579303 -34.76391071 17.15034839 -28.07527161 9.85835266 C-19.71029545 2.42079777 -10.8976042 -0.04877719 0 0 Z " fill="#EA5E55" transform="translate(564.2783966064453,589.7393035888672)"/>
<path d="M0 0 C2.18241727 -0.0037874 4.36483214 -0.00929089 6.54724121 -0.01637268 C12.45006859 -0.0302887 18.35260324 -0.01918479 24.25541425 -0.00266147 C30.44468724 0.01122978 36.63394395 0.00472438 42.82322693 0.00120544 C53.21406754 -0.00149325 63.6047924 0.01195039 73.99560547 0.03515625 C85.99550273 0.06177079 97.99514015 0.06350954 109.99505669 0.05176789 C121.55745379 0.0409759 133.1197812 0.04718791 144.68217278 0.06132317 C149.59461052 0.0670699 154.50699703 0.06701062 159.4194355 0.06225777 C165.20698646 0.05747334 170.99432658 0.06765052 176.78183746 0.08921242 C178.90137712 0.09476021 181.02093712 0.09526411 183.14047813 0.09025955 C186.04213061 0.08426923 188.94314651 0.09688345 191.84474182 0.11402893 C192.67579156 0.10801889 193.5068413 0.10200884 194.36307436 0.09581667 C204.41357975 0.20320127 212.58203887 3.33031231 220.43920898 9.50170898 C221.06827148 9.9928418 221.69733398 10.48397461 222.34545898 10.98999023 C229.37899396 17.20603101 233.23753169 25.31877539 233.98608398 34.59155273 C234.5405407 47.59087225 232.75432453 57.56462584 224.37670898 67.87670898 C218.12315317 74.38166403 209.67525588 79.14734786 200.5199163 79.59569991 C198.13613935 79.6397082 195.75427462 79.64939507 193.37008667 79.64888 C191.9971214 79.65439504 191.9971214 79.65439504 190.59641945 79.66002148 C187.52822251 79.67103771 184.46005945 79.67489867 181.3918457 79.67871094 C179.19223422 79.68497715 176.9926238 79.69162409 174.79301453 79.69862366 C167.56831599 79.71964778 160.34361728 79.73002453 153.11889648 79.73999023 C150.62999587 79.74403841 148.14109537 79.74815535 145.65219498 79.75234032 C134.628978 79.77029616 123.60576559 79.78467497 112.58253659 79.79251672 C110.56698727 79.79395514 108.55143797 79.79540652 106.53588867 79.796875 C105.86871327 79.79735874 105.20153787 79.79784248 104.51414503 79.79834088 C93.71304205 79.80663631 82.91204998 79.83196692 72.1109954 79.86445568 C61.00841369 79.89757773 49.90587809 79.91521004 38.80324566 79.9187333 C32.57492165 79.92108193 26.34677306 79.93001842 20.11849594 79.95519447 C14.25632903 79.97850808 8.39445265 79.98269501 2.53225136 79.97243309 C0.38570628 79.97193843 -1.76085326 79.97823828 -3.90735435 79.99198914 C-18.11808808 80.07790119 -30.65996005 79.85150893 -41.56079102 69.50170898 C-43.88747231 66.99688272 -45.77417171 64.41421561 -47.56079102 61.50170898 C-47.97586914 60.84299805 -48.39094727 60.18428711 -48.81860352 59.50561523 C-53.61307188 50.10108113 -52.86401037 37.10566325 -50.86547852 26.97827148 C-47.33830856 16.39676163 -40.11850869 8.69313891 -30.44256687 3.32696438 C-20.70588075 -0.83049764 -10.38040524 -0.05137358 0 0 Z " fill="#39C59D" transform="translate(265.560791015625,698.498291015625)"/>
<path d="M0 0 C0.90951778 -0.00367669 1.81903556 -0.00735338 2.75611448 -0.01114148 C5.81670405 -0.02219165 8.87725967 -0.02602447 11.93786621 -0.02983093 C14.12733061 -0.03609471 16.31679394 -0.04274143 18.5062561 -0.04974365 C24.46530098 -0.06716437 30.42433783 -0.07770894 36.38340187 -0.08594918 C40.1070787 -0.09109845 43.83075303 -0.0971743 47.5544281 -0.10346031 C58.53790263 -0.12142423 69.52137255 -0.13580078 80.50485918 -0.14363671 C82.51475476 -0.14507517 84.52465034 -0.14652655 86.5345459 -0.147995 C87.53251958 -0.14872061 87.53251958 -0.14872061 88.55065435 -0.14946087 C99.31631883 -0.15775228 110.08187187 -0.18307312 120.84748775 -0.21557567 C131.90933062 -0.24869913 142.97111409 -0.26633034 154.03300619 -0.26985329 C160.24012148 -0.27220226 166.44706077 -0.28114263 172.65412903 -0.30631447 C178.49821263 -0.32963037 184.3420048 -0.33381407 190.18612289 -0.32355309 C192.32621608 -0.32305843 194.46632377 -0.32935797 196.60637283 -0.34310913 C211.53636599 -0.433642 223.97267563 0.08010625 235.20935059 11.14717102 C244.51957409 21.76155034 246.2899831 33.4521717 245.41638184 47.12715149 C244.38803098 57.16084836 239.71823735 65.3984898 232.14294434 71.92842102 C220.29253933 80.57773273 206.54617472 79.5841256 192.57263184 79.55122375 C190.38198499 79.55693256 188.19134113 79.56389879 186.0007019 79.57202148 C180.07514068 79.58990976 174.14972788 79.58879284 168.2241478 79.5830791 C163.26887739 79.57998153 158.31363525 79.5860859 153.35836887 79.59211785 C140.99829902 79.60694757 128.63831003 79.60336155 116.27824032 79.59125454 C106.23145544 79.58193881 96.18482363 79.59129653 86.13806152 79.61372375 C74.44546045 79.63972908 62.75296305 79.65215695 51.0603323 79.64553601 C44.88018396 79.64217048 38.70017833 79.64455508 32.52005005 79.66178703 C26.70866309 79.67728503 20.89760532 79.67326865 15.08623123 79.65448189 C12.95904222 79.65080421 10.83182866 79.65388038 8.70466232 79.66436768 C-5.15533056 79.72746057 -16.64778027 79.42247864 -27.78283691 70.14326477 C-36.49216857 61.48476579 -38.18787812 52.96117896 -38.29064941 41.08467102 C-38.33189941 39.92000305 -38.37314941 38.75533508 -38.41564941 37.55537415 C-38.51417278 26.50228413 -34.97000306 18.40085597 -27.60314941 10.20967102 C-19.72348291 2.83837009 -10.56141682 -0.00227646 0 0 Z " fill="#F5B540" transform="translate(564.7906494140625,698.8528289794922)"/>
<path d="M0 0 C8.73231822 6.4763794 15.88342687 15.64883158 17.87890625 26.56640625 C19.45796487 42.15961008 17.95824593 54.56704106 8.16015625 67.34375 C3.56582006 72.30563309 -1.57067139 75.82892991 -7.83984375 78.34375 C-8.68160156 78.69953125 -9.52335938 79.0553125 -10.390625 79.421875 C-21.83603587 82.48089761 -36.41582399 81.92901287 -47.1796875 76.89453125 C-57.96585581 70.60655941 -66.80885764 61.86359169 -70.26171875 49.61328125 C-72.7243553 35.68607321 -71.35432967 23.07660716 -63.65234375 11.09375 C-49.48227329 -7.98134485 -20.01933431 -12.6225997 0 0 Z " fill="#363B46" transform="translate(538.83984375,491.65625)"/>
<path d="M0 0 C0 3.9765245 -1.38011503 5.0890167 -4 8 C-6.25 9.8125 -6.25 9.8125 -8 11 C-8.66 10.67 -9.32 10.34 -10 10 C-6.7 6.7 -3.4 3.4 0 0 Z " fill="#171A27" transform="translate(542,334)"/>
<path d="M0 0 C0 3 0 3 -1.53125 4.60546875 C-2.1809375 5.12753906 -2.830625 5.64960937 -3.5 6.1875 C-4.1496875 6.71730469 -4.799375 7.24710938 -5.46875 7.79296875 C-5.9740625 8.19128906 -6.479375 8.58960938 -7 9 C-7.66 8.67 -8.32 8.34 -9 8 C-6.03 5.36 -3.06 2.72 0 0 Z " fill="#232732" transform="translate(862,860)"/>
<path d="M0 0 C0.66 0.33 1.32 0.66 2 1 C2 1.66 2 2.32 2 3 C1.34 3 0.68 3 0 3 C-0.12375 3.94875 -0.2475 4.8975 -0.375 5.875 C-1 9 -1 9 -3 11 C-2.53199289 6.94393835 -2.12046792 3.53411321 0 0 Z " fill="#232631" transform="translate(383,258)"/>
</svg>
